HIERARCHY
ROOT Hips
{
	OFFSET 0.000000 0.000000 0.000000 
	CHANNELS 6 Xposition Yposition Zposition Zrotation Yrotation Xrotation
	JOINT LeftUpLeg
	{
		OFFSET 1.363060 -1.794630 0.839290 
		CHANNELS 3 Zrotation Yrotation Xrotation
		JOINT LeftLeg
		{
			OFFSET 2.448110 -6.726130 0.000000 
			CHANNELS 3 Zrotation Yrotation Xrotation
			JOINT LeftFoot
			{
				OFFSET 2.562200 -7.039590 0.000000 
				CHANNELS 3 Zrotation Yrotation Xrotation
				JOINT LeftToeBase
				{
					OFFSET 0.157640 -0.433110 2.322550 
					CHANNELS 3 Zrotation Yrotation Xrotation
					End Site
					{
						OFFSET 0.000000 0.000000 0.000000 
					}
				}
			}
		}
	}
	JOINT RightUpLeg
	{
		OFFSET -1.305520 -1.794630 0.839290 
		CHANNELS 3 Zrotation Yrotation Xrotation
		JOINT RightLeg
		{
			OFFSET -2.542530 -6.985550 0.000000 
			CHANNELS 3 Zrotation Yrotation Xrotation
			JOINT RightFoot
			{
				OFFSET -2.568260 -7.056230 0.000000 
				CHANNELS 3 Zrotation Yrotation Xrotation
				JOINT RightToeBase
				{
					OFFSET -0.164730 -0.452590 2.363150 
					CHANNELS 3 Zrotation Yrotation Xrotation
					End Site
					{
						OFFSET 0.000000 0.000000 0.000000 
					}
				}
			}
		}
	}
	JOINT Spine
	{
		OFFSET 0.028270 2.035590 -0.193380 
		CHANNELS 3 Zrotation Yrotation Xrotation
		JOINT Spine1
		{
			OFFSET 0.056720 2.048850 -0.042750 
			CHANNELS 3 Zrotation Yrotation Xrotation
			JOINT Neck1
			{
				OFFSET -0.054170 1.746240 0.172020 
				CHANNELS 3 Zrotation Yrotation Xrotation
				JOINT Head
				{
					OFFSET 0.104070 1.761360 -0.123970 
					CHANNELS 3 Zrotation Yrotation Xrotation
					End Site
					{
						OFFSET 0.000000 0.000000 0.000000 
					}
				}
			}
			JOINT LeftArm
			{
				OFFSET 3.362410 1.200890 -0.311210 
				CHANNELS 3 Zrotation Yrotation Xrotation
				JOINT LeftForeArm
				{
					OFFSET 4.983000 -0.000000 -0.000000 
					CHANNELS 3 Zrotation Yrotation Xrotation
					JOINT LeftHand
					{
						OFFSET 3.483560 -0.000000 -0.000000 
						CHANNELS 3 Zrotation Yrotation Xrotation
						JOINT LeftHandIndex1
						{
							OFFSET 0.715260 -0.000000 -0.000000 
							CHANNELS 3 Zrotation Yrotation Xrotation
							End Site
							{
								OFFSET 0.000000 0.000000 0.000000 
							}
						}
					}
				}
			}
			JOINT RightArm
			{
				OFFSET -3.136600 1.374050 -0.404650 
				CHANNELS 3 Zrotation Yrotation Xrotation
				JOINT RightForeArm
				{
					OFFSET -5.241900 -0.000000 -0.000000 
					CHANNELS 3 Zrotation Yrotation Xrotation
					JOINT RightHand
					{
						OFFSET -3.444170 -0.000000 -0.000000 
						CHANNELS 3 Zrotation Yrotation Xrotation
						JOINT RightHandIndex1
						{
							OFFSET -0.622530 -0.000000 -0.000000 
							CHANNELS 3 Zrotation Yrotation Xrotation
							End Site
							{
								OFFSET 0.000000 0.000000 0.000000 
							}
						}
					}
				}
			}
		}
	}
}
MOTION
Frames: 13
Frame Time: 0.041667
10.420841 18.245626 -0.036931 -1.972196 -0.889114 15.353303 -24.141654 -17.386781 -16.400910 1.510819 8.114647 23.013958 1.525365 0.340782 -23.426454 11.311600 -18.084200 -63.789300 18.722077 21.273161 -25.599051 -2.613784 -10.951757 31.612900 -1.241769 -1.500924 -21.551999 -2.218200 9.306500 -26.758700 0.110648 1.875870 -3.817935 3.580047 0.571164 3.698086 7.797598 -3.932462 25.482280 2.218900 -1.118500 9.537300 -76.343263 -19.153214 35.200561 9.310200 -17.709617 -2.204543 0.426799 1.154655 20.193573 -7.125000 0.000000 0.000000 66.592015 -8.240749 20.849157 -11.419132 29.180931 -4.512126 1.009363 -1.403729 10.919092 7.125000 0.000000 0.000000 
10.390189 18.241049 0.106856 -1.913095 -0.207800 15.103427 -24.292072 -17.281716 -15.449757 1.496233 8.020917 22.825132 1.563917 -0.021275 -23.642170 11.337600 -18.096400 -63.873100 17.938208 21.668043 -26.292866 -2.493441 -10.865300 31.109929 -1.213139 -2.430645 -21.343578 -2.040500 8.949900 -25.638800 0.208415 1.627802 -3.767959 3.824070 0.440166 3.748489 7.782569 -4.099876 25.668214 2.148400 -1.167100 9.564400 -76.599245 -20.139110 36.190572 9.274138 -17.638777 -2.182937 0.450400 1.149687 20.561318 -7.125000 0.000000 0.000000 67.173773 -9.445038 20.473088 -11.179690 28.974735 -4.424802 0.971890 -1.435253 11.221012 7.125000 0.000000 0.000000 
10.357089 18.232747 0.252560 -1.681520 0.519065 14.958368 -24.592673 -17.223847 -14.671204 1.499814 7.970208 22.754007 1.607190 -0.568675 -23.878723 11.361200 -18.107300 -63.949000 16.944763 21.755723 -27.110431 -2.372729 -10.770819 30.579054 -1.178746 -3.389321 -21.086827 -2.032600 8.933600 -25.587800 0.282659 1.340498 -3.715247 4.041875 0.277973 3.892013 7.693913 -4.185804 25.779971 2.027300 -1.172000 9.559200 -76.986336 -21.082672 37.073617 9.298902 -17.644689 -2.168353 0.466574 1.139434 21.155741 -7.125000 0.000000 0.000000 67.939119 -10.521246 19.858666 -10.969041 28.813214 -4.363317 0.915260 -1.481554 11.381685 7.125000 0.000000 0.000000 
10.322712 18.221147 0.400924 -1.272163 1.221467 14.931713 -25.070508 -17.290337 -14.040537 1.519459 7.964608 22.805991 1.650641 -1.151768 -24.122166 11.386600 -18.119100 -64.030700 15.740361 21.554026 -28.115505 -2.258220 -10.683099 30.053673 -1.143759 -4.215677 -20.817733 -2.043300 8.955600 -25.656500 0.344714 1.017151 -3.677230 4.292678 0.095542 4.062987 7.669454 -4.256396 25.771844 1.964600 -1.188700 9.495600 -77.602924 -21.945894 37.925938 9.389902 -17.737701 -2.165855 0.473566 1.127193 21.654178 -7.125000 0.000000 0.000000 68.770110 -11.633669 19.274194 -10.768382 28.672702 -4.309732 0.850046 -1.531063 11.820168 7.125000 0.000000 0.000000 
10.285249 18.206459 0.552801 -0.916726 1.824728 14.949785 -25.467737 -17.335492 -13.470550 1.532120 7.975926 22.889984 1.692306 -1.230421 -24.392662 11.588200 -18.211100 -64.677600 14.653258 21.282301 -29.170348 -2.146095 -10.593768 29.525346 -1.097247 -4.911085 -20.394634 -2.051600 8.972600 -25.709800 0.390299 0.737536 -3.655464 4.419781 -0.059008 4.165468 7.176842 -4.192726 25.919382 1.657000 -1.132600 9.502900 -78.234082 -22.690783 39.183820 9.573191 -17.950182 -2.194592 0.471080 1.125989 21.135610 -7.125000 0.000000 0.000000 69.830961 -12.787347 18.456494 -10.549986 28.531061 -4.261149 0.796692 -1.592312 12.604289 7.125000 0.000000 0.000000 
10.241931 18.188366 0.709148 -0.752429 2.329567 14.947609 -25.596883 -17.253593 -12.949208 1.546896 8.014119 23.037624 1.740563 -1.011293 -24.738531 11.879500 -18.339200 -65.606200 13.914969 21.083552 -30.108063 -2.025910 -10.474666 28.934310 -1.035260 -5.578177 -19.735226 -2.032700 8.933800 -25.588500 0.451153 0.532937 -3.632707 4.514271 -0.166448 4.238524 6.984098 -4.201533 26.136239 1.504600 -1.101700 9.598900 -78.940675 -23.404966 40.688602 9.801948 -18.219821 -2.241783 0.474914 1.128200 20.144018 -7.125000 0.000000 0.000000 71.036124 -13.767009 17.234453 -10.238231 28.289727 -4.199289 0.751488 -1.663289 13.174619 7.125000 0.000000 0.000000 
10.191377 18.169315 0.870390 -0.713252 2.809715 14.861103 -25.542799 -17.133934 -12.360729 1.577371 8.071506 23.253648 1.808339 -1.065675 -25.191629 12.045000 -18.409600 -66.131300 13.508981 20.908328 -30.776079 -1.891805 -10.293892 28.213586 -0.972423 -6.244034 -18.963447 -1.967800 8.798600 -25.167300 0.535411 0.367022 -3.612106 4.691747 -0.240065 4.313350 8.183372 -4.604532 26.335992 2.103600 -1.263900 9.779900 -79.764406 -23.842262 42.379000 10.157034 -18.661988 -2.341651 0.490798 1.135352 19.575902 -7.125000 0.000000 0.000000 72.126006 -14.600689 16.120227 -9.661772 27.748486 -4.034227 0.694710 -1.726681 13.431388 7.125000 0.000000 0.000000 
10.136991 18.147177 1.036741 -0.685720 3.236895 14.645560 -25.499668 -16.996813 -11.568018 1.616137 8.107204 23.438430 1.890203 -1.625128 -25.672555 12.017300 -18.397900 -66.043500 13.277911 20.648175 -31.211551 -1.764576 -10.074715 27.441040 -0.920073 -6.694875 -18.200642 -1.805600 8.448700 -24.085600 0.617927 0.177442 -3.593806 4.812156 -0.321371 4.329198 8.828649 -4.770728 26.408578 2.422200 -1.330100 9.816100 -80.653324 -23.958317 43.999773 10.657282 -19.292088 -2.481738 0.503593 1.138834 19.364603 -7.125000 0.000000 0.000000 73.204653 -15.277596 14.950382 -8.828064 26.917127 -3.788700 0.619634 -1.789640 14.078256 7.125000 0.000000 0.000000 
10.082711 18.121208 1.210755 -0.545616 3.502140 14.425800 -25.642201 -16.874087 -10.687975 1.648810 8.128553 23.592028 1.974081 -2.079168 -26.157287 11.984600 -18.384100 -65.940000 13.009234 20.303277 -31.614917 -1.649214 -9.847067 26.663122 -0.879548 -6.891303 -17.497946 -1.755200 8.336300 -23.740400 0.662282 0.008315 -3.575885 4.803272 -0.400067 4.321595 8.582151 -4.675856 26.578478 2.250600 -1.257600 9.853400 -81.623095 -24.105329 45.459671 11.062440 -19.802755 -2.591124 0.504781 1.142037 19.012374 -7.125000 0.000000 0.000000 74.587629 -15.989489 13.127563 -8.309467 26.426423 -3.677462 0.568656 -1.877513 15.200687 7.125000 0.000000 0.000000 
10.024600 18.092365 1.393710 -0.306050 3.690941 14.329352 -25.870823 -16.779015 -9.903005 1.672996 8.155145 23.747098 2.056993 -2.163829 -26.654024 12.048200 -18.410900 -66.141500 12.716341 19.839147 -32.127648 -1.544209 -9.635487 25.920054 -0.846567 -6.958794 -16.845209 -1.907000 8.669600 -24.767200 0.694031 -0.137064 -3.575334 4.841174 -0.465060 4.340413 8.888386 -4.809291 26.851420 2.360400 -1.277700 10.020400 -82.640514 -24.213077 47.119833 11.454592 -20.296294 -2.686134 0.492796 1.144029 18.311418 -7.125000 0.000000 0.000000 76.174139 -17.197877 11.249383 -8.710259 26.949148 -3.859943 0.571001 -1.979470 15.892649 7.125000 0.000000 0.000000 
9.959145 18.061820 1.586456 -0.056021 3.863748 14.287516 -26.054641 -16.602573 -9.156870 1.695117 8.182401 23.899642 2.130932 -2.117635 -27.095220 12.160200 -18.457500 -66.495600 12.540953 19.377372 -32.589532 -1.443249 -9.418048 25.175606 -0.820330 -6.993701 -16.259389 -1.929300 8.717300 -24.914900 0.746824 -0.321166 -3.582879 4.967921 -0.557283 4.416449 9.102350 -4.877478 27.113873 2.459200 -1.287300 10.172400 -83.744254 -24.174769 48.623808 11.903057 -20.858122 -2.790430 0.492173 1.133699 17.815301 -7.125000 0.000000 0.000000 77.339904 -17.796837 9.772890 -8.219290 26.471527 -3.744642 0.516244 -2.053993 16.179782 7.125000 0.000000 0.000000 
9.887730 18.031274 1.787291 0.184652 3.994500 14.222650 -26.195730 -16.312955 -8.378944 1.726108 8.199556 24.039535 2.196356 -2.443918 -27.438578 12.163900 -18.459100 -66.507300 12.525570 19.072645 -32.817949 -1.335192 -9.160974 24.356656 -0.799981 -7.139710 -15.724434 -1.965000 8.792800 -25.149400 0.786779 -0.539705 -3.570842 4.967343 -0.674494 4.566851 8.767612 -4.664916 27.264320 2.270700 -1.172100 10.219700 -84.798928 -24.084582 49.814573 12.318361 -21.381484 -2.888065 0.497677 1.118630 17.538331 -7.125000 0.000000 0.000000 78.560731 -18.218757 8.058973 -7.680441 25.935656 -3.624940 0.448477 -2.135583 16.820362 7.125000 0.000000 0.000000 
9.812697 18.001048 1.992702 0.392003 4.169426 14.153521 -26.270084 -15.926256 -7.631030 1.764642 8.216875 24.187785 2.258323 -2.999304 -27.737229 12.154700 -18.455300 -66.478200 12.680218 18.796088 -32.911953 -1.232525 -8.904394 23.572312 -0.783672 -7.427119 -15.215214 -2.315900 9.495300 -27.357300 0.831553 -0.844150 -3.573122 4.873817 -0.828021 4.707259 8.219316 -4.391116 27.338514 1.981800 -1.042300 10.205600 -85.780676 -23.878884 50.885879 12.693287 -21.859625 -2.979939 0.505024 1.103757 17.130018 -7.125000 0.000000 0.000000 79.764565 -18.550872 6.168405 -7.127848 25.363331 -3.502834 0.364256 -2.213219 17.767814 7.125000 0.000000 0.000000 
